<?xml version="1.0" encoding="utf-8"?>
<!-- Generator: Adobe Illustrator 23.0.1, SVG Export Plug-In . SVG Version: 6.00 Build 0)  -->
<svg version="1.1" id="Layer_1" xmlns="http://www.w3.org/2000/svg" xmlns:xlink="http://www.w3.org/1999/xlink" x="0px" y="0px"
	 viewBox="0 0 358.47 232.59" style="enable-background:new 0 0 358.47 232.59;" xml:space="preserve">
<style type="text/css">
	.st0{fill:#00467F;}
</style>
<path class="st0" d="M210.55,168.17l-1.5-9.06h-11.27v39.88h13v-18.36c0-6.78,3.94-9.85,8.67-9.85c1.89,0,3.7,0.32,4.97,0.87
	l0.63-13.16c-0.94-0.17-1.84-0.25-2.71-0.25C216.21,158.23,211.93,162.23,210.55,168.17"/>
<path class="st0" d="M102.07,190.31c-4.41,0-7.41-3.31-7.49-8.98h24.19c0.39-1.34,0.71-3.62,0.71-5.28
	c0-9.85-5.67-17.89-17.34-17.89c-12.45,0-20.02,8.27-20.02,21.28c0,12.85,7.72,20.49,19.7,20.49c7.72,0,14.89-3.39,17.34-11.11
	l-10.56-3.62C107.59,188.74,105.3,190.31,102.07,190.31z M101.84,167.3c3.7,0,5.67,2.84,5.67,6.07c0,0.63,0,1.26-0.16,1.81H94.74
	C95.14,170.3,97.82,167.3,101.84,167.3z"/>
<path class="st0" d="M261.19,171.56c0,15.45,21.51,9.22,21.51,16.16c0,2.52-2.13,3.78-5.44,3.78s-5.99-1.97-6.54-4.89l-10.88,2.44
	c1.73,7.33,8.67,10.88,17.34,10.88c10.4,0,17.81-4.65,17.81-13.32c0-15.92-21.67-9.38-21.67-16.39c0-2.36,1.81-3.78,4.81-3.78
	c3.39,0,5.36,1.81,5.67,4.57l10.8-1.26c-1.18-7.41-7.09-11.59-16.55-11.59C268.76,158.16,261.19,162.81,261.19,171.56"/>
<path class="st0" d="M8.94,150.67v8.43h-5.2v9.54h5.12v17.81c0,9.38,5.83,13.48,14.26,13.48c4.18,0,8.04-1.18,10.88-3.31l-1.65-9.14
	c-2.05,1.42-3.86,2.05-5.99,2.05c-2.84,0-4.49-1.5-4.49-4.81v-16.08h10.4v-9.54H21.94V149.1L8.94,150.67z"/>
<path class="st0" d="M232.68,150.67v8.43h-5.2v9.54h5.12v17.81c0,9.38,5.83,13.48,14.26,13.48c4.18,0,8.04-1.18,10.88-3.31
	l-1.66-9.14c-2.05,1.42-3.86,2.05-5.99,2.05c-2.84,0-4.49-1.5-4.49-4.81v-16.08h10.4v-9.54h-10.32V149.1L232.68,150.67z"/>
<path class="st0" d="M174.66,146.34H159.6l-19.15,52.64h13l3.78-10.96h19.31l3.78,10.96h13.48L174.66,146.34z M160.55,178.26
	l6.22-18.21h0.16l6.23,18.21H160.55z"/>
<path class="st0" d="M38.82,142.08v56.9h13v-21.59c0-6.07,3.07-8.43,6.7-8.43c3.78,0,5.2,2.36,5.2,6.3v23.72h13v-27.9
	c0-8.51-5.28-12.93-12.45-12.93c-5.67,0-10.32,2.84-12.45,8.04v-24.11H38.82z"/>
<path class="st0" d="M221.98,97.72l-1.5-9.06h-11.27v39.88h13v-18.36c0-6.78,3.94-9.85,8.67-9.85c1.89,0,3.7,0.32,4.97,0.87
	l0.63-13.16c-0.94-0.17-1.84-0.25-2.71-0.25C227.65,87.78,223.36,91.78,221.98,97.72"/>
<path class="st0" d="M343.97,97.72l-1.5-9.06H331.2v39.88h13v-18.36c0-6.78,3.94-9.85,8.67-9.85c1.89,0,3.7,0.32,4.96,0.87
	l0.63-13.16c-0.94-0.17-1.84-0.25-2.71-0.25C349.63,87.78,345.35,91.78,343.97,97.72"/>
<path class="st0" d="M68.74,119.86c-4.41,0-7.41-3.31-7.49-8.98h24.19c0.39-1.34,0.71-3.62,0.71-5.28c0-9.85-5.68-17.89-17.34-17.89
	c-12.45,0-20.02,8.27-20.02,21.28c0,12.85,7.72,20.49,19.7,20.49c7.72,0,14.9-3.39,17.34-11.11l-10.56-3.62
	C74.26,118.29,71.97,119.86,68.74,119.86z M68.51,96.85c3.7,0,5.68,2.84,5.68,6.07c0,0.63,0,1.26-0.16,1.81H61.41
	C61.81,99.85,64.49,96.85,68.51,96.85z"/>
<path class="st0" d="M104.65,96.3l-1.58-7.64H91.97v39.88h13v-21.59c0-6.07,3.07-8.43,6.7-8.43c3.78,0,5.2,2.36,5.2,6.3v23.72h13
	v-27.9c0-8.51-5.28-12.93-12.45-12.93C111.43,87.71,106.63,90.78,104.65,96.3"/>
<path class="st0" d="M185.99,119.86c-4.41,0-7.41-3.31-7.49-8.98h24.19c0.39-1.34,0.71-3.62,0.71-5.28
	c0-9.85-5.67-17.89-17.34-17.89c-12.45,0-20.02,8.27-20.02,21.28c0,12.85,7.72,20.49,19.7,20.49c7.72,0,14.89-3.39,17.34-11.11
	l-10.56-3.62C191.51,118.29,189.22,119.86,185.99,119.86z M185.75,96.85c3.7,0,5.67,2.84,5.67,6.07c0,0.63,0,1.26-0.16,1.81h-12.61
	C179.06,99.85,181.74,96.85,185.75,96.85z"/>
<path class="st0" d="M305.5,87.71c-11.98,0-20.1,7.49-20.1,20.88c0,13.32,8.12,20.89,20.1,20.89c11.9,0,20.02-7.57,20.02-20.89
	C325.52,95.2,317.4,87.71,305.5,87.71z M305.5,119.94c-4.97,0-7.17-4.02-7.17-11.35c0-7.33,2.21-11.43,7.17-11.43
	c4.89,0,7.09,4.1,7.09,11.43C312.59,115.92,310.39,119.94,305.5,119.94z"/>
<path class="st0" d="M138.96,80.22v8.43h-5.2v9.54h5.12V116c0,9.38,5.83,13.48,14.26,13.48c4.18,0,8.04-1.18,10.88-3.31l-1.66-9.14
	c-2.05,1.42-3.86,2.05-5.99,2.05c-2.84,0-4.49-1.5-4.49-4.81V98.19h10.4v-9.54h-10.32V78.65L138.96,80.22z"/>
<path class="st0" d="M0,102.21c0,17.02,9.85,27.27,24.9,27.27c10.64,0,18.2-5.28,20.96-14.03l-11.9-5.28
	c-1.02,4.81-4.02,8.19-9.14,8.19c-6.62,0-11.11-5.52-11.11-16.15s4.49-16.16,11.11-16.16c5.12,0,8.12,3.31,9.14,8.12l11.9-5.28
	c-2.76-8.67-10.32-13.95-20.96-13.95C9.85,74.94,0,85.19,0,102.21"/>
<path class="st0" d="M261.78,86.37v2.29h-5.12v9.54h5.12v30.34h13V98.19h8.67v-9.54h-8.67v-2.29c0-3.7,1.66-5.99,4.97-5.99
	c1.89,0,3.15,0.47,4.57,1.73l3.15-8.67c-2.76-1.65-5.75-2.76-9.85-2.76C267.93,70.69,261.78,76.76,261.78,86.37"/>
<rect x="196.11" y="18.21" class="st0" width="13" height="39.88"/>
<path class="st0" d="M79.65,17.26c-11.98,0-20.1,7.49-20.1,20.88c0,13.32,8.12,20.88,20.1,20.88c11.9,0,20.02-7.57,20.02-20.88
	C99.66,24.75,91.55,17.26,79.65,17.26z M79.65,49.49c-4.96,0-7.17-4.02-7.17-11.35c0-7.33,2.21-11.43,7.17-11.43
	c4.89,0,7.09,4.1,7.09,11.43C86.74,45.47,84.53,49.49,79.65,49.49z"/>
<path class="st0" d="M130.01,17.26c-5.91,0-10.56,3.55-12.06,8.27l-1.5-7.33h-11.11v55.48h13V53.19c1.73,3.39,5.67,5.83,10.96,5.83
	c10.01,0,16.86-8.2,16.86-21.43C146.17,25.61,140.18,17.26,130.01,17.26z M125.2,49.65c-3.7,0-6.86-2.68-6.86-8.35v-4.57
	c0-6.07,3.23-9.3,7.01-9.3c4.57,0,7.41,3.62,7.41,10.72C132.77,45.55,130.01,49.65,125.2,49.65z"/>
<path class="st0" d="M229.52,25.85l-1.58-7.64h-11.11v39.88h13V36.49c0-6.07,3.07-8.43,6.7-8.43c3.78,0,5.2,2.36,5.2,6.3v23.72h13
	v-27.9c0-8.51-5.28-12.92-12.45-12.92C236.3,17.26,231.49,20.33,229.52,25.85"/>
<path class="st0" d="M260.61,30.66c0,15.45,21.51,9.22,21.51,16.16c0,2.52-2.13,3.78-5.44,3.78c-3.31,0-5.99-1.97-6.54-4.89
	l-10.87,2.44c1.73,7.33,8.67,10.88,17.34,10.88c10.4,0,17.81-4.65,17.81-13.32c0-15.92-21.67-9.38-21.67-16.39
	c0-2.36,1.81-3.78,4.81-3.78c3.39,0,5.36,1.81,5.67,4.57l10.8-1.26c-1.18-7.41-7.09-11.58-16.55-11.58
	C268.17,17.26,260.61,21.91,260.61,30.66"/>
<polygon class="st0" points="40.01,5.44 40.01,25.77 20,25.77 20,5.44 6.76,5.44 6.76,58.08 20,58.08 20,37.12 40.01,37.12 
	40.01,58.08 53.25,58.08 53.25,5.44 "/>
<polygon class="st0" points="151.89,1.18 151.89,58.08 164.89,58.08 164.89,41.61 167.41,41.61 177.74,58.08 192.32,58.08 
	178.68,36.65 191.05,18.2 176.87,18.2 167.49,32.23 164.89,32.23 164.89,1.18 "/>
<path class="st0" d="M202.65,0c-3.94,0-7.57,2.52-7.57,7.01c0,4.41,3.62,6.93,7.57,6.93c3.94,0,7.57-2.52,7.57-6.93
	C210.21,2.52,206.59,0,202.65,0z"/>
<path class="st0" d="M26.62,230.97c-0.24,0.1-0.49,0.15-0.73,0.15c-0.28,0-0.53-0.04-0.76-0.12c-0.23-0.08-0.41-0.19-0.55-0.33
	c-0.12-0.12-0.22-0.27-0.28-0.43s-0.09-0.36-0.09-0.57v-6.06l2.89,0.07l0.26-1.03l-0.02-0.05H24.2v-2.8l-2.05,0.09v2.7h-1.58v1h1.58
	v6.36c0,0.5,0.04,0.89,0.12,1.16c0.08,0.27,0.23,0.51,0.44,0.71c0.22,0.23,0.51,0.42,0.87,0.55c0.36,0.13,0.76,0.2,1.18,0.2
	c0.62,0,1.16-0.12,1.6-0.37c0.44-0.25,0.91-0.71,1.39-1.4l-0.33-0.33C27.13,230.71,26.86,230.87,26.62,230.97 M12.95,227.99
	c0.31-0.26,0.86-0.4,1.65-0.4c0.31,0,0.6,0.02,0.86,0.06c0.26,0.04,0.51,0.1,0.75,0.2l-0.05,1.96c-0.01,0.43-0.17,0.77-0.47,1.01
	c-0.3,0.24-0.7,0.36-1.21,0.36c-0.68,0-1.19-0.13-1.52-0.4c-0.33-0.26-0.49-0.67-0.49-1.21v-0.16
	C12.49,228.73,12.64,228.26,12.95,227.99 M18.5,231.16c-0.19-0.24-0.28-0.62-0.28-1.13c0-0.2,0-0.48,0.01-0.84
	c0.01-0.36,0.03-0.94,0.06-1.74c0.01-0.71,0.03-1.22,0.05-1.51v-0.67c0-1.16-0.24-1.98-0.74-2.44c-0.49-0.46-1.35-0.7-2.58-0.7
	c-0.65,0-1.33,0.1-2.04,0.29c-0.71,0.19-1.31,0.45-1.81,0.76v1.14l0.05,0.02c0.54-0.36,1.05-0.61,1.53-0.77
	c0.47-0.16,0.97-0.23,1.48-0.23c0.73,0,1.25,0.15,1.56,0.46c0.31,0.31,0.47,0.83,0.47,1.55v1.04c-0.79,0.03-1.52,0.13-2.19,0.29
	c-0.67,0.16-1.29,0.4-1.87,0.71c-0.65,0.35-1.1,0.72-1.35,1.1c-0.25,0.38-0.37,0.85-0.37,1.43c0,0.83,0.24,1.45,0.72,1.86
	c0.48,0.4,1.24,0.6,2.26,0.6c0.59,0,1.09-0.07,1.5-0.21c0.41-0.14,0.87-0.43,1.39-0.89c0.08,0.33,0.19,0.6,0.35,0.82
	c0.15,0.22,0.33,0.38,0.54,0.49h0.07l2.17-0.26v-0.74C19.01,231.54,18.69,231.4,18.5,231.16"/>
<path class="st0" d="M40.89,230.5h-2.77v-11.96h2.97c3.97,0,6.15,2.01,6.15,6.15C47.24,228.3,45.25,230.5,40.89,230.5 M41.48,216.89
	h-6.61v0.28c0.59,0.35,0.85,0.76,0.85,2.42v9.86c0,1.66-0.26,2.07-0.85,2.42v0.28h6.19c5.76,0,8.73-3.4,8.73-8.05
	C49.79,219.92,46.91,216.89,41.48,216.89"/>
<path class="st0" d="M91.63,231.87c-0.65-0.37-0.96-0.81-0.96-2.53v-10.8h1.86c2.38,0,2.84,0.35,3.47,1.14l0.28-0.09l-0.46-2.9
	c-0.89,0.11-2.07,0.2-3.56,0.2h-5.61c-1.48,0-2.66-0.09-3.56-0.2l-0.46,2.9l0.28,0.09c0.63-0.79,1.09-1.14,3.47-1.14h1.85v10.8
	c0,1.72-0.31,2.16-0.96,2.53v0.28h4.34V231.87z M101.03,231.87c-0.68-0.28-0.96-0.81-0.74-2.49l1-7.59l4.97,10.17h0.92l5.04-10.19
	l0.94,7.7c0.2,1.64-0.02,2.12-0.65,2.4v0.28h4.14v-0.28c-0.57-0.3-0.81-0.76-1.02-2.31l-1.74-12.85h-1.11l-5.69,11.76l-5.69-11.76
	h-1.11l-1.81,12.76c-0.22,1.59-0.55,2.07-1.18,2.4v0.28h3.75V231.87z"/>
<path class="st0" d="M72.41,231.87c-0.48-0.24-0.85-0.76-0.85-2.42v-10.97h1.99c2.42,0,3.64,0.94,3.64,2.97
	c0,1.85-1.16,3.01-3.36,3.01h-1.44v0.22l0.68,1.37h0.65c0.72,0,0.94,0.24,2.01,1.68l2.73,3.67c0.44,0.59,0.74,0.76,1.31,0.76h2.68
	v-0.28c-0.57-0.22-1-0.54-2.05-1.9l-1.88-2.4c-1-1.26-1.55-1.9-2.2-2.16c2.25-0.59,3.4-2.18,3.4-4.1c0-2.81-1.88-4.43-5.93-4.43
	h-5.5v0.28c0.48,0.24,0.85,0.76,0.85,2.42v9.86c0,1.66-0.37,2.18-0.85,2.42v0.28h4.12V231.87z"/>
<path class="st0" d="M55.57,226.07l2.44-5.59l2.44,5.59H55.57z M64.75,229.8l-5.91-13.09h-0.9l-5.91,13.09
	c-0.59,1.29-0.89,1.77-1.55,2.07v0.28h3.93v-0.28c-0.79-0.31-1.05-0.79-0.35-2.38l0.81-1.86h6.28l0.81,1.86
	c0.7,1.59,0.46,2.07-0.24,2.38v0.28h4.47v-0.28C65.62,231.57,65.34,231.09,64.75,229.8"/>
<path class="st0" d="M175.65,217.17v-0.28h-4.12v0.28c0.59,0.35,0.85,0.76,0.85,2.42v9.86c0,1.66-0.26,2.07-0.85,2.42v0.28h4.12
	v-0.28c-0.59-0.35-0.85-0.76-0.85-2.42v-4.25h8.75v4.25c0,1.66-0.26,2.07-0.85,2.42v0.28h4.12v-0.28c-0.59-0.35-0.85-0.76-0.85-2.42
	v-9.86c0-1.66,0.26-2.07,0.85-2.42v-0.28h-4.12v0.28c0.59,0.35,0.85,0.76,0.85,2.42v3.93h-8.75v-3.93
	C174.8,217.93,175.06,217.52,175.65,217.17"/>
<path class="st0" d="M164.31,231.87c-0.65-0.37-0.96-0.81-0.96-2.53v-10.8h1.85c2.38,0,2.84,0.35,3.47,1.14l0.28-0.09l-0.46-2.9
	c-0.9,0.11-2.07,0.2-3.56,0.2h-5.61c-1.48,0-2.66-0.09-3.56-0.2l-0.46,2.9l0.28,0.09c0.63-0.79,1.09-1.14,3.47-1.14h1.85v10.8
	c0,1.72-0.31,2.16-0.96,2.53v0.28h4.34V231.87z"/>
<path class="st0" d="M149.17,217.17c0.63,0.37,0.96,0.81,0.96,2.53v6.52c0,2.79-1.51,4.34-4.15,4.34c-2.75,0-4.23-1.51-4.23-4.19
	v-6.78c0-1.66,0.26-2.07,0.85-2.42v-0.28h-4.12v0.28c0.59,0.35,0.85,0.76,0.85,2.42v6.94c0,3.75,2.33,5.96,6.33,5.96
	c3.97,0,6.33-2.23,6.33-6.26v-6.52c0-1.72,0.33-2.16,0.96-2.53v-0.28h-3.77V217.17z"/>
<path class="st0" d="M127.37,230.81c-3.23,0-5.72-2.82-5.72-6.65c0-3.67,2.12-5.93,5.3-5.93c3.23,0,5.72,2.81,5.72,6.65
	C132.68,228.54,130.56,230.81,127.37,230.81 M127.16,216.54c-4.89,0-8.07,3.77-8.07,8.09c0,4.1,2.92,7.85,8.09,7.85
	c4.89,0,8.07-3.78,8.07-8.09C135.25,220.29,132.33,216.54,127.16,216.54"/>
</svg>
