<?xml version="1.0" encoding="utf-8"?>
<!-- Generator: Adobe Illustrator 23.0.1, SVG Export Plug-In . SVG Version: 6.00 Build 0)  -->
<svg version="1.1" id="Layer_1" xmlns="http://www.w3.org/2000/svg" xmlns:xlink="http://www.w3.org/1999/xlink" x="0px" y="0px"
	 viewBox="0 0 344.47 160.04" style="enable-background:new 0 0 344.47 160.04;" xml:space="preserve">
<style type="text/css">
	.st0{fill:#A3D6F3;}
	.st1{fill:#00467F;}
</style>
<path class="st0" d="M223.87,129.65c-1.72,2.25-6.08,3.54-11.97,3.54c-13.19,0-28.88-6.14-34.97-13.68
	c-27.53-34.09-5.61-85-5.39-85.5l2.05-4.64l-11.59,7.47c0,0-1.14-5.25,0.27-9.1c0-0.01,0.01-0.01,0.01-0.02
	c1.07-4.45,3.86-9.02,10.45-11.14c3.57-1.15,7.08-1.73,10.43-1.73c17.14,0,28.21,15.1,34.48,27.77
	C232.77,73.18,233.73,116.75,223.87,129.65 M191.69,0c-45.04,0-41.33,42.15-41.33,42.15l0.11,2.55l-10.33,7.24
	c0,0-27.83,53.56,10.63,90.46c26.03,24.98,54.42,21.68,78.25,1.12C279.57,99.87,253.15,0,191.69,0"/>
<path class="st1" d="M165.84,6.87h-69.9v10.31h21.37v51.02v2.96H51.53V17.17h21.6V6.87H0v10.31h19.55v126.09H0v10.31h73.13v-10.31
	h-21.6V90.83h65.77v52.44H95.94v10.31h69.73c-5.02-2.77-10.01-6.47-14.91-11.18c-38.45-36.9-10.63-90.45-10.63-90.45l10.33-7.24
	l-0.11-2.55C150.36,42.15,148.32,18.81,165.84,6.87"/>
<path class="st1" d="M277.69,73.78h-15.2V20.67h13.38c26.54,0,35.36,5.42,36.74,25.07C312.61,66.15,303.54,73.78,277.69,73.78
	 M286.76,6.87h-68.73c41.55,23.29,53.56,99.9,10.98,136.64c-4.69,4.05-9.56,7.41-14.54,10.04h69.62v-10.29h-21.6V91.07h21.09
	c22.91,0,35.83-4.66,45.13-11.21c11.57-8.26,15.76-20.17,15.76-36.45C342.55,18.55,328.03,6.87,286.76,6.87"/>
</svg>
